<?xml version="1.0" encoding="utf-8"?>
<!-- Generator: Adobe Illustrator 28.1.0, SVG Export Plug-In . SVG Version: 6.00 Build 0)  -->
<svg version="1.1" id="Layer_1" xmlns="http://www.w3.org/2000/svg" xmlns:xlink="http://www.w3.org/1999/xlink" x="0px" y="0px"
	 viewBox="0 0 2221.3 1704.6" style="enable-background:new 0 0 2221.3 1704.6;" xml:space="preserve">
<style type="text/css">
	.st0{fill:#F39E12;}
</style>
<g id="_x36_te3Kk_00000128467849984244707120000001381762942543459221_">
	<g>
		<path class="st0" d="M989.1,1585c0.3-9.7,0.1-17,1.2-24.3c0.8-5.4,3.6-10,4.8-15.2c1.3-6.2,0.4-7.5-6-7.4
			c-6.6,0.1-12.9-1.2-18.9-4c-5-2.4-7.3-1.7-9.8,3.4c-1.6,3.3-3.4,6.6-4.2,10.1c-3.6,14.4-10,27.8-15.6,41.4
			c-3.4,8.4-6.3,17.5-12.1,25c-0.8,1-1.5,2.2-2,3.5c-2.8,6.7-9.9,10.4-16.6,8.6c-0.6-0.2-1.3-0.4-1.6-0.9c-3.7-5.6-2.4-13.3,2.9-18
			c0.7-0.6,1.7-1.5,1.8-2.3c2-14,9.7-26,13.8-39.3c6.4-20.9,14.1-41.5,21.5-62.1c2.6-7.3,3-15,3.5-22.6c0.9-14.1,7-26.3,13.2-38.5
			c4.4-8.6,7.3-17.8,12-26.2c2.8-5,5.5-9.4,11.2-11.3c6.4-2.1,8.8-8,11.8-13c7.3-12,14.5-24.1,20-37.1c1-2.3,2-4.3-0.9-6.5
			c-6.9-5.3-8.7-11.2-5.3-19.5c4.2-10.1,8.8-20.1,13.8-29.9c4.3-8.3,11.8-11.1,19.1-8.3c2.2,0.9,3.3,2.3,4,4.6
			c3.5,10.8,2.6,21.7,0.8,32.6c-4.2,24.6-16,45.9-29.1,66.7c-9.7,15.2-21,29.5-28.2,46.2c-8.8,20.5-17.1,41.2-21.6,63.1
			c-1.2,5.9,3.2,12.4,9,13.4c15.7,2.7,30.8,0.9,46.2-4.1c16.3-5.4,30.7-14.4,46-21.6c11.3-5.3,18.2-14.6,21.9-26.5
			c6-19.2,11.6-38.6,18.6-57.4c7.9-21.5,14-43.6,22.1-65.1c4.2-11.2,7.8-22.6,11.5-34c1.8-5.7,5.7-8.8,11.2-10.2
			c5.1-1.2,8.7,1.6,10.9,6.3c4.6,9.7,0.7,18.5-2.1,27.3c-2.3,7.3-3.1,14.7-3.2,22.1c-0.3,13-3.9,25.4-6.2,38.1
			c-1.4,7.8-4.7,14.8-6,22.4c-0.7,3.9-2.2,7.6-4.1,11.2c-4.3,8.2-8.1,16.6-12.7,24.5c-4.6,7.8-8.4,16.4-16.2,22.3
			c-5.4,4.1-6.9,11.2-9.3,17.4c-0.9,2.3-1.6,4.7-3.3,6.6c-1.7,2-2,4.3-0.2,6.3c1.7,2,3.9,1.6,5.9,0.5c7.3-3.7,14.4-7.7,21.8-11.2
			c18.8-9.1,35.5-21.4,51-35.2c11.1-9.9,16.2-23.6,22.7-36.5c6.9-13.7,10.2-28.8,17.4-42.4c0.8-1.6,1.2-3.5,1.5-5.2
			c0.9-5.8,2.5-11.4,5-16.7c3.7-7.7,5.6-16.1,7-24.4c1.5-9.1,5.3-17.5,7.6-26.3c1-4,1.5-8.1,3.6-11.9c2.8-5.3,7.4-7.5,13-8.1
			c3.9-0.4,7.7,4.2,9.1,9.7c1.7,6.9,2.8,13.7-1.3,20.2c-0.3,0.5-0.6,1.4-0.4,1.9c3.5,8.2-1.3,15.4-2.4,23.1
			c-1.9,12.5-4.8,24.7-8.8,36.6c-1.6,4.7-3.9,9.1-6.8,13.2c-2.1,3.1-4.3,6.2-5,10.2c-1.5,7.3-5.3,13.6-9.6,19.5
			c-3.9,5.4-6.5,11.7-8.8,17.9c-2.5,6.8,6.7,19.3,14.9,20.8c9.4,1.7,18.8,1.6,28.2-0.7c3.2-0.8,4.8-2.4,5.1-5.8
			c0.5-5.5,1.8-10.8,4.7-15.6c2.9-4.7,3.2-10.3,5.9-15.2c6.1-11.2,15.7-19.9,21.9-30.9c2.9-5.1,5.9-9.6,12.2-10.8
			c5.2-1,9.6,0.6,11.1,5.7c1.8,6.2,4.8,12.2,3.2,19.2c-2.3,10.3-1.8,21.1-4.6,31.4c-0.4,1.6-0.5,2.9,0.7,4.2
			c1.3,1.4,2.9,0.8,4.1,0.1c11.6-6.9,23.6-13.1,33.8-22c8.3-7.2,12.1-17.3,16.8-26.9c3.6-7.5,6.9-15.1,10.7-22.5
			c3.3-6.5,8.4-8.5,15.4-6.8c1.7,0.4,2.7,1.3,3.2,2.8c2.6,8.5,3.9,16.5-0.5,25.4c-4.4,8.8-10.5,16.9-12.8,26.9
			c-1.6,6.7-0.6,8.6,6.2,8.7c14.4,0.1,27.9-4.1,41.3-8.7c5.2-1.8,7.8-6.7,9.8-11.5c6.7-15.4,17-28,28.9-39.6
			c3.3-3.3,6.7-6.5,9.7-10.1c3.4-4,7.6-3.6,11.9-2.8c4.1,0.7,4.7,4,5.6,7.3c2.6,9.1,0.5,17-5.2,24.3c-0.6,0.8-1.5,1.5-1.7,2.4
			c-2.4,9.5-9.1,16.5-13.6,24.8c-0.8,1.4-3,2.8-0.9,4.7c1.7,1.5,3.6,0.9,5.6,0.3c21.4-5.7,38.7-19,56.4-31.4c7-4.9,9.3-13,11.2-20.6
			c3.5-14.3,11.2-26.6,17.3-39.6c7.8-16.5,20.1-29.6,31.5-43.4c2.7-3.3,6.4-4.7,10.5-5.2c4.4-0.5,7,1.6,7.1,6.2
			c0.1,3.1,0.6,5.9,2.3,8.5c1.8,2.9,1.6,6.1-0.1,9c-5.1,9.3-7.6,19.9-12.4,29.2c-8.5,16.6-15.9,34.1-29.8,47.4
			c-3.2,3.1-5,7.4-8.3,10.5c-1.7,1.6-1.8,4.4-0.5,6.5c1.4,2.3,3.6,1.1,5.4,0.4c17.9-7.8,35.4-16.3,49.5-30.2
			c3.2-3.1,5.5-6.9,6.4-11.1c2.4-11.5,8.3-21.4,13.8-31.4c8.3-15,19-28.3,31-40.5c3.1-3.2,7.3-4.8,11.6-5.5c4.1-0.7,5.3,2.6,6.1,5.8
			c0.3,1.2,0,2.7-0.1,4c-0.8,7.8,1.6,9.8,9.1,7c22.6-8.4,46-11.7,69.9-12.9c7-0.4,12.3-3.7,16.5-9c3.1-3.9,6.3-7.7,9.2-11.8
			c2.6-3.6,6.2-4.9,10.3-5.2c6-0.4,8.6,2.7,7.5,8.5c0,0.2-0.1,0.3-0.1,0.5c-2.2,11.3,1.4,14.9,12.6,12.9c2.4-0.5,4.9-0.8,7.4-0.9
			c2.3-0.1,5.2-0.5,5.7,2.6c0.5,2.8,0.7,5.8-2.5,8c-6.4,4.3-13.7,5.3-20.9,6.2c-9.7,1.3-16.9,6.2-20.8,14.5
			c-4.7,9.8-12.3,17.3-18.6,25.8c-6,8.1-12.6,15.8-19.1,23.4c-1.6,1.9-2.7,4.2-4,6.3c-0.9,1.5-0.4,2.9,0.7,4.1
			c1.2,1.2,2.3,0.8,3.6,0c9.7-6.4,20.2-11.7,28.8-19.7c4.9-4.6,10-4.9,15.6-3.1c7,2.2,8.4,2.1,13.1-4.1c4.3-5.6,10.5-7.7,16.7-5.7
			c3.2,1.1,5.1,2.9,5,6.5c-0.1,5.2,0.4,10.3-0.7,15.4c-0.5,2.2,0.1,3.9,1.7,5.4c1.7,1.6,3.3,0.9,5,0.1c15.6-6.7,29.9-15.3,42.3-27
			c2.7-2.5,4.8-5.5,6.5-8.8c1.5-3.2,4.2-5.2,7.1-6.7c7.8-4,13.6-0.6,14.3,7.9c0.2,2.2,0.6,4.3,0.8,6.4c0.4,5.4-1.1,9.9-5.9,12.9
			c-7.2,4.5-12.3,11.1-18.1,17c-1.7,1.7-2,4.1-2.8,6.3c-2.1,5.9-3.6,12.1-8.1,16.9c-1.6,1.7-1.9,4-0.7,5.5c1.8,2.4,4.5,3.8,7.9,3.3
			c10.9-1.7,20.6-6.3,29.8-12.2c12.1-7.8,17.7-20.9,26.2-31.6c5.2-6.5,8.9-14,12.4-21.5c2.5-5.3,6.6-8.6,12.5-9.6
			c3.6-0.7,5.7,0.4,7,3.8c3,8.2,1,16.2-2.8,23.1c-8.2,14.6-17.6,28.7-28.3,41.6c-8.4,10.1-16.2,20.6-24.6,30.6
			c-4.7,5.6-7.5,12.6-12.2,18.2c-3.7,4.4-9.4,6.2-14.2,3.9c-4.3-2-6-6.8-4.7-12.8c0.3-1.5,0.5-3,0.7-4.4c0.4-2.8-0.7-4.1-3.6-3.9
			c-2.5,0.2-5,0.1-7.5,0.3c-12.2,0.7-21.8-10-20-22.1c0.2-1,0.5-1.9,0.6-2.9c0.7-10.2-2.7-12.7-12.2-9.2c-7,2.6-14.5,4.3-21.1,7.5
			c-6.5,3.2-12.2,8-18.5,11.7c-11.2,6.6-22.9,9.8-35.3,2.7c-3-1.7-4.2-4.5-4.9-7.7c-1.7-7.4-3.9-8.3-10.4-4.9
			c-3.1,1.6-6.2,3.4-8,6.5c-4.3,7.3-12.3,10.5-18.2,16.1c-6.1,5.8-12.8,11.2-18.7,17.1c-12,12-25.1,22.8-37.4,34.5
			c-6.7,6.4-13.8,12.5-19.1,20.2c-2.4,3.4-5.4,6.2-8.5,9.1c-10.5,9.7-20,20.4-31.8,28.6c-16.1,11.1-30.1,24.9-46.8,35.3
			c-10.9,6.8-22.4,13.1-32.3,21.6c-4.2,3.6-13.4,2.8-17.6-0.4c-2.1-1.6-2.5-11.3-0.3-13.6c3.2-3.3,5.2-7.2,7.6-11.1
			c2.8-4.5,6.2-8.4,10.1-12.1c10.7-10.2,21.8-20.2,34.1-28.1c10.5-6.8,19.4-15.4,29.9-22.1c14-8.9,27.1-19.1,40.5-28.9
			c11.2-8.3,22.2-17.1,31.5-27.2c11.5-12.5,23-25.3,31.4-40.4c0.5-0.9,1.4-1.7,0.6-2.7c-1-1.1-2.2-0.2-3.2,0.2
			c-13,4.6-26.2,8.8-40.1,10c-4.8,0.4-9.7,1.1-14.3,0.3c-4.3-0.7-8-3.7-11.6-6.2c-0.5-0.4-0.9-1-1.4-1.4c-7.6-6.7-10.2-6.8-18.3-1.1
			c-12.1,8.6-25,15.8-38.9,21c-6.7,2.5-13.7,2.1-20.6,2.1c-2.5,0-4.4-1.1-5.2-3.8c-1.1-4.4-4.6-4.9-8.3-4.4c-2.7,0.3-5,1.7-7.1,3.4
			c-17.9,14.8-38.4,23.5-61.3,26.6c-8.9,1.2-17.8,0.7-26.4-2.7c-5.7-2.3-11.9-1.7-17,0.8c-10.1,4.9-20.7,7.7-31.6,8.7
			c-8.6,0.8-17.6,0.7-26-2.9c-0.6-0.3-1.2-0.6-1.7-1c-5.9-5.7-8.2-5.6-14.7-1c-16,11.4-32.6,21.5-50.6,29.5
			c-11.5,5.1-23,6.7-35.4,5.4c-7.5-0.8-14.8,1.7-22.3,2.7c-12.5,1.6-24.7,2.3-36.5-3.8c-5.9-3.1-13,1.2-14,7.8
			c-0.8,5.2-4.8,8.9-8.5,10.9c-4.5,2.4-7.2,5.8-9.5,9.6c-3.3,5.4-6.8,10.7-9.2,16.5c-0.7,1.7-2.1,2.6-3.9,2.5
			c-4.6-0.3-8.8,0.5-13,2.7c-2.5,1.3-4.1,0.6-6-2.5c-5.3-8.5,1.5-14.1,3.6-20.8c0.8-2.4,3.8-5,1.6-7.1c-2-1.9-4.4,1.3-6.4,2.4
			c-19.5,11.1-39.2,21.8-60.2,29.9c-6.5,2.5-11.3,6.5-14.4,13.5c-3.8,8.4-10.2,15.6-14.3,23.9c-9.6,19.3-23.5,35.3-37.6,51.2
			c-3.7,4.2-6.7,9.1-11.1,12.8c-3.2,2.6-6.5,3.2-11,2.4c-11-2.2-13.8-11.4-18.2-19.2C989.4,1605.5,988.3,1594.2,989.1,1585z
			 M1673.3,1383c8-0.7,16.2-1.2,23.9-3.5c12.7-3.7,24-10.5,35.5-16.8c6.8-3.7,13.1-8.4,18.4-14.3c11.6-12.8,18.2-28.8,27.8-42.8
			c0.9-1.3,2.1-2.8,1-4.6c-1.1-1.7-3-1.4-4.6-1c-10.6,2.7-21.5,4.1-32.1,6.9c-12.9,3.5-24.2,10.9-37.2,14c-2.1,0.5-4.4,1.8-5,3.8
			c-1.5,4.3-5,6.9-7.4,10.4c-6.5,9.7-14.6,18-22.1,26.9c-3.3,3.9-5.7,8.2-7.7,12.7c-1.6,3.7,0.8,7.4,4.8,8
			C1670.3,1383.2,1671.8,1383,1673.3,1383z M1007.7,1585.1c1.5,7.1,2.5,14.3,6.5,20.7c2.7,4.2,5.2,4.5,7.9,0.5
			c5.5-7.9,12-14.9,16.8-23.4c6.6-11.7,15.7-21.9,21.8-34c0.9-1.7,1.8-3.4,0.9-5.2c-1.1-2.1-3.2-1.1-5-0.9c-12.1,1-23.8,4.7-36,5.3
			c-4.9,0.2-7.5,3.7-9.2,8.5C1008.2,1565.9,1010.6,1575.7,1007.7,1585.1z"/>
		<path class="st0" d="M657.4,1168.1c-0.2-2.3,1.2-6.5-1.9-8c-3.5-1.7-5.8,2.2-8.1,4.5c-13.8,13.8-27.9,27.2-40.2,42.3
			c-4.6,5.6-10.4,10.1-14.4,16.5c-2.4,3.9-7.1,4.2-11.3,3.3c-4-0.9-6.6-3.5-7.5-7.8c-1.7-8.3,0.1-13.1,7.4-17.8
			c3.6-2.3,6-5.8,8.4-9.1c10.8-14.5,24.2-26.4,37.5-38.6c11-10.1,21.2-21.1,31.2-32.2c9.5-10.5,14.8-22.7,19.7-35.9
			c3.4-9.2,7.3-18.5,11.3-27.6c2.6-5.9,6.8-7.6,13-6.6c2.6,0.5,4.5,1.8,5.3,4.1c2.6,8,4.4,15.9,0.1,24.1c-6.8,13-11,27-16.2,40.7
			c-5.3,13.8-9.4,28-12.8,42.4c-0.5,2.1-1.5,4.1,0.6,6c2,1.8,4.1,1.1,6.1,0.4c10.5-3.5,19.5-9.7,27.8-16.5
			c11.8-9.7,22.7-20.5,32.7-32.1c7.2-8.3,9.8-18.8,14.5-28.3c4.1-8.3,7-17.4,11.7-25.4c4.9-8.3,9.5-16.8,14.7-24.8
			c2.4-3.6,6.5-3.8,10.4-3.3c3.1,0.4,4.2,2.9,5.7,5.6c6.6,12-0.9,20.7-5.5,30.8c-5.5,12-14.7,21.7-19,34.3
			c-2.3,6.6-6.3,12.8-8.6,19.6c-0.7,2.2-1.4,4.4-2.1,6.6c-1,3.4-2.4,7-7.1,7.2c-1.5,0.1-2.9,0.8-3.8,2.2c-0.6,1-1.4,2-0.5,3.2
			c0.7,0.9,1.9,1,2.7,0.5c3.5-2.2,7.1-1.9,11-1.5c2.3,0.3,4.4-1.3,6.4-2.6c16.3-10.7,31.5-22.7,45.1-36.8
			c8.3-8.5,14.5-18.3,20.2-28.8c6.6-12.3,12.3-25.1,19-37.4c3.5-6.4,4.7-13.8,9-19.9c3.7-5.2,12.2-6.5,15.4-1.6
			c3,4.8,6.2,10.3,3.5,16.4c-3.6,8.2-7.6,16.3-11.5,24.3c-4.5,9.1-8.5,18.4-15,26.4c-1.8,2.2-2.6,5.4-3.7,8.1
			c-4.7,11.1-11.4,20.9-18.1,30.7c-0.8,1.1-2.6,2.4-1.5,3.8c1.1,1.3,3.1,0.7,4.7,0.3c6.7-1.5,12.8-4.3,18.6-8.1
			c15.9-10.5,30.6-22.4,43.5-36.4c6.2-6.7,10.4-14.8,13.8-23c5.1-12.4,11.3-24.1,18.2-35.4c2.5-4.1,4-8.8,7-12.6
			c4.6-5.8,9.1-6.8,15.5-3.4c3,1.6,5.9,10.6,5.5,14c-1.2,11.8-10.2,19.5-14.7,29.6c-2,4.4-4.8,8.4-8,12c-4.9,5.4-5,13-8.7,18.9
			c-3.4,5.4-4.4,12-8.2,17.2c-1.2,1.8-1.8,4.1-0.1,6c1.7,1.9,3.9,1.1,5.5,0c5.5-3.7,11-7.5,16.2-11.6c15.9-12.6,31.2-25.9,46-39.8
			c9.8-9.2,17.8-19.5,22.5-32.5c3.6-10,10.5-18.4,16.3-27.3c4.6-7.1,8.9-14.4,12.7-21.9c3.8-7.6,8.8-14.5,13-21.8
			c6.2-11,13.7-21.2,19.4-32.5c3.9-7.7,8.8-14.8,13.4-22.1c1.3-2.1,2.6-4.1,3.2-6.6c1.4-5.7,9.1-10.4,14.8-9.4
			c1.6,0.3,3.2,0.8,4.4,2.2c4.9,5.8,6.4,16,1.9,22.5c-6.8,9.8-9,21.7-15.7,31.4c-7.8,11.4-13,24.2-19.7,36.2
			c-6.8,12.2-14.6,23.7-21.5,35.8c-2,3.6-5.1,6.5-7.7,9.8c-10.4,13-19.3,27-26,42.3c-0.7,1.7-3,3.4-1,5.3c2,1.8,4.6,3.3,7.3,2.1
			c6.5-3,13.6-4.6,19.2-9.4c3.2-2.7,7.5-3.4,10.8-6.1c7.2-5.8,11.6-13.6,16.8-20.9c1.2-1.6,1.9-3.6,3.9-4.4c2.4-1,4-2.3,3-5.3
			c-0.4-1.1,0.4-2.3,1.2-3.2c8.9-10.2,16-21.6,23.8-32.5c5.1-7.1,9.9-14.6,14.1-22.3c5.2-9.3,11.2-18.1,16.4-27.4
			c2.9-5.3,2.6-5.8-3.1-6.2c-4.5-0.3-7.8-3.2-9.9-6.9c-1.6-2.8,1.1-4.7,3.1-6c4.2-2.7,8.5-5.6,13.1-7.1c9.3-3,14.5-9.3,17.7-18.2
			c2.6-7.2,7.5-9.4,14-7.1c2.9,1,4.2,3,4.9,5.8c1.4,5.4,5.9,8.4,11.1,6.4c6.8-2.6,13.6-2.8,20.6-2c5.3,0.6,10.5-1.5,15.9-0.3
			c6.4,1.5,10.2,6.7,9.3,13.6c-0.6,4.3-5.1,7.5-11.4,6.4c-12.9-2.3-25.1,1.3-37.5,3.8c-2.4,0.5-4.8,1.4-7.1,2.3
			c-4.3,1.6-7,4-8.3,8.9c-1.7,6.4-4.7,12.4-7.4,18.5c-2,4.7-1.6,8.8,1.4,13.1c6.6,9.6,10.9,20,10.9,31.9c0,7,1.4,14,0.7,20.9
			c-1.4,12.1-1.8,24.3-4.9,36.2c-1.3,4.9-2.8,9.8-4.4,14.6c-1.6,4.9-4.9,7.8-9.6,8.4c-4.8,0.7-8-2.9-10.5-6.5
			c-2.5-3.6-1.8-7.4,0.7-10.7c8.8-11.5,8.5-25,8.6-38.4c0-3.3-0.1-6.7,0.4-9.9c1.1-7.1-2.1-13.4-3.7-19.9c-0.7-2.6-2.9-3.7-5.2-4.1
			c-2.6-0.5-3.2,2-4.2,3.6c-6.3,9.8-10.7,20.6-18.2,29.7c-9.4,11.4-18.4,23-29.3,33.2c-6,5.6-11.7,11.8-14.9,19.8
			c-1.3,3.3-3.9,5.8-6.7,8c-2,1.6-4.3,2.6-6.9,1.1c-4.1-2.4-8-1.5-11.8,0.8c-8.2,4.9-17.1,7.7-26.5,9.7c-8.1,1.7-15.6,0.1-23.1-1.8
			c-2.9-0.8-6.7-2.9-6.3-7.7c0.3-3.6-2.3-3.3-4.3-1.9c-5.4,3.9-11,7.5-15.7,12.1c-14.6,14.4-30.5,27.3-47.3,38.9
			c-6.3,4.3-13.5,6.5-21,7.4c-5.3,0.7-12.2-5.3-12.5-10.7c-0.1-1.2,0.1-2.3-0.1-3.5c-0.7-5.3-3.1-6.7-7.2-3.3c-6,5-12.2,9.8-18.8,14
			c-11.9,7.6-23.8,15.5-38.5,16.6c-7.4,0.6-12.2-2.9-13.7-10.2c-0.9-4-2.4-4.4-5.8-2.6c-3.7,2-6.9,4.4-10.2,7
			c-12.4,9.5-25.1,18.7-40.7,22.5c-6.3,1.5-15.2-2.2-18.5-7.7c-0.7-1.1-1.3-2.3-1.1-3.8c0.1-1.4,1.5-3.2-0.4-4
			c-1.5-0.6-3.2,0.6-4.6,1.5c-6.6,4.3-11.6,10.7-18.2,14.8c-12.4,7.6-23.2,17.9-37.8,21.8c-6.6,1.8-13.1,2-19.7,0.5
			c-2-0.5-4.1-1.2-4.6-3.4C660,1182.1,656.6,1175.9,657.4,1168.1z"/>
		<path class="st0" d="M939.2,437.7c1,4.1-0.6,8.3-2.5,12.5c-2.8,6.3-3.6,13.1-4.1,19.9c-0.8,10.3-3.1,20.3-6.2,30.2
			c-1.4,4.6-3.1,9.1-4,13.9c-0.1,0.3-0.1,0.7-0.2,1c-6.2,13.3-8.9,28.3-18.7,39.9c-2.6,3.1-2.6,7.1-4,10.6c-3.8,9.4-10,17.7-13,27.5
			c-0.9,2.8-1.2,5.8-1.6,8.8c-0.4,2.3,1.1,2.9,3,3c4.1,0.2,7.9-0.3,11.5-2.6c11.8-7.8,23.1-16.4,32.4-27.2c7-8.2,10.7-18.3,15-28
			c5.5-12.6,11.7-25,16.3-38c4-11.4,8.2-22.8,11.9-34.4c2.1-6.6,4.5-13.1,7.7-19.4c4-7.7,4.6-16.6,7.9-24.7c1.9-4.6,4.7-8.7,7-13.1
			c2.4-4.8,12.5-3.4,15.1,1.4c5.1,9.8,1.6,19.2-1.1,28.6c-3.5,12.3-6.3,24.9-11.4,36.5c-3.2,7.3-0.1,11.9,2.1,17.6
			c7.7,19.9,8.5,40.2,2.4,60.6c-0.9,3.1-0.4,5.4,1.2,7.9c3.1,4.8,2.9,10.7-0.2,13.9c-3.1,3.2-10.7,3.5-15.1,0.7
			c-2.6-1.6-2.9-4.4-3.4-6.9c-1.5-8.8-2.9-17.7-0.5-26.6c0.4-1.5,2.4-4-0.1-4.7c-2.3-0.7-5.3-0.2-7.1,2.4
			c-3.4,5.1-7.2,10.1-10.1,15.4c-4.3,7.9-10.2,14.7-14.3,22.7c-2.2,4.3-5.3,7.2-10.8,7.7c-4.4,0.4-8,2.9-11.5,6.2
			c-12,11.2-24,22.8-40.6,27.2c-10.5,2.8-16.7,1.6-21.8-9c-1.4-2.9-3.7-2.5-5.9-1.9c-2.9,0.8-5.4,2.6-7.5,4.8
			c-11.4,11.7-24.6,20.9-39.2,27.8c-9.6,4.6-20.2,6.9-31.1,3.3c-3-1-5.6-0.3-8,1.4c-7.6,5.4-15.8,9.9-24,14.2
			c-6.3,3.3-13.2,4.7-20.1,5.7c-5.8,0.8-10.2-2.2-14.2-5.9c-1.2-1.1-2.1-2.6-3.3-3.8c-3.4-3.6-6.4-3.5-9.7,0.1
			c-9.6,10.3-21.5,17.1-34.3,22.4c-3.3,1.4-6.9,1.6-10.7,0.1c-5.3-2.1-10.2,0.4-14.5,3.2c-8.7,5.6-17.8,10.5-27.7,13.5
			c-9.9,3-19.7,5.1-29.1-1.7c-2.5-1.8-4.9-0.5-6.7,1.4c-3.5,3.8-6.7,7.8-10.2,11.6c-9.4,10.2-19,20.2-32.1,25.5
			c-6.8,2.8-13.6,3.7-20.1-2.6c-5.7-5.4-10.9-10.4-12.1-18.6c-0.7-4.6,0.7-8.9,1.3-13.3c4.2-29.6,18.9-53.6,40.5-73.3
			c9.1-8.3,19.7-15,32.1-18.6c10.8-3.2,20-0.7,29,4.7c5.7,3.4,7.9,17.3,4.1,22.6c-1.8,2.6-4.5,3.3-7.4,3.4c-4,0.2-6.6,2.9-5.4,6.1
			c2.5,6.5-1.3,12.2-1.1,18.3c0,0.5-0.1,1-0.2,1.5c-1.8,9.9,1.8,10.9,10.3,9.5c11-1.8,21-7.2,30.6-13c9.5-5.7,12.6-15,14.7-24.8
			c0.5-2.5,1.3-4.8,2.4-7c5.5-10.8,11-21.6,16.5-32.4c1.7-3.3,3.6-6.3,7.8-7c7.4-1.2,12.2,2.7,14.3,11.9c1.6,7.2-0.5,13.9-3.3,20.3
			c-1.7,3.8-3.9,7.3-5.9,11c-0.8,1.6-2.5,3.1-0.4,4.8c2,1.6,4.2,2,6.3-0.1c5.6-6,11.5-11.7,15.1-19.5c4.1-8.9,8.2-17.8,10.9-27.2
			c1.8-6.3,8.3-10.1,14.5-8.6c5.4,1.3,6,6.7,6.9,10.6c1.4,6.3,1.1,12.9-2.1,19c-4.1,7.9-5.8,16.6-8.9,24.9c-0.8,2.2,0,4,2.9,4.6
			c5.2,1.1,10.1,0.1,14.6-2.1c6-2.9,11.6-6.5,17.4-9.8c6.7-3.8,9.4-9.7,8.8-17.2c-0.3-3.4,0.2-6.4,2.3-8.9c2.4-3,1.2-6.8,2.5-10
			c6.3-15.6,16.8-27.9,29.6-38.2c6.8-5.5,11.9-11,10.1-20.4c-1.2-6.3,1.7-11.4,5-16.2c3.7-5.4,12.8-4.6,15.9,1.1
			c2.9,5.4,6.2,10.6,5,17.2c-0.6,3.3,1.9,4.5,4.6,4.7c5.4,0.2,10.4,1.7,15.6,3.1c4.4,1.2,8.3-1.8,9.9-6.3
			c4.3-11.7,5.3-24.2,8.4-36.1c1.8-6.8,3.8-13.6,6.9-20.1c3.3-6.9,5.5-14.3,8.2-21.4c5.4-14.1,11.3-28,19.4-40.9
			c2.8-4.4,7.3-5.5,11.9-6.4c1.3-0.3,2.1,0.4,2.9,1.5C938.5,427.2,939.3,429.7,939.2,437.7z M529.9,714.1c-0.5,1.8,0.2,3.2,1.6,4.3
			c1.8,1.4,3.7,1.5,5.5,0.3c3.9-2.5,8-4.7,11.5-7.8c9.8-8.7,17.1-19.5,25.4-29.4c2.6-3.1,4-7.2,4.6-11.4c0.8-6.2,2-12.5,3-18.7
			c0.2-1.3,1.1-2.7-0.2-3.7c-1.2-0.9-2.5-0.1-3.8,0.4c-5,1.9-8.3,5.8-12.3,9.1c-12.3,10.3-22.2,22.3-28.4,37.2
			C534.3,700.9,531.2,707.2,529.9,714.1z M852.7,575.2c-8.8,1.8-19.4,1.6-23.4,12.8c-4.8,13.2-11,25.6-20.5,36.1
			c-1,1.1-2.9,2.3-1.4,4.2c1.4,1.9,3.6,2,5.4,1c5.6-3.3,11.8-5.1,17.1-9.1c12.1-9.2,22.8-19.8,33.1-30.9c2.1-2.2,3.7-4.7,4.3-7.8
			c0.5-2.5-0.3-4.3-3-4.8C860.5,576.1,856.9,575.7,852.7,575.2z"/>
		<path class="st0" d="M1623.1,800.4c6.4,0,8.3,2.2,9.5,7.9c2,9.8-1.4,17.7-6.9,25.5c-4.7,6.7-6.1,15.1-9.8,22.3
			c-6.8,13.1-10.9,27.4-19.4,39.7c-0.9,1.3-1.4,3-2.1,4.5c-1.8,3.7-3.4,7.6-7.2,9.9c-2.2,1.4-3.2,3.8-4.2,6.1
			c-5.9,14.5-14.5,27.1-25,38.6c-4,4.4-5.3,11-10.1,15.2c-6.2,5.5-9.1,13.4-14.4,19.6c-2.8,3.3-2.3,7.8-4,11.7
			c-1,2.4,2.7,4.2,6.1,3.2c5.5-1.7,10.5-4.7,15-7.9c6.4-4.5,13.8-7.2,20.2-11.6c10.2-7,21.4-12.6,30.4-21.4
			c4.4-4.3,8.4-8.9,11.3-14.5c0.7-1.3,1.3-2.8,2.2-3.9c7.2-8.6,12.7-18.5,19.7-27.4c4.3-5.4,8-11.7,11.6-17.8
			c2.9-5,7.8-5.1,12.5-5.7c1.2-0.2,2.4,0.4,3,1.5c4.7,8.6,9.9,16.9,3.7,27.3c-3.4,5.8-5.3,12.5-8.2,18.7c-1.9,4.1-4.9,7.6-8.3,10.4
			c-4.9,4-9.2,8.5-12.9,13.7c-4.4,6.2-10.9,10.7-15.5,16.9c-1.6,2.1-3.4,4.1-5.1,6.2c-1.6,1.9-1.6,4.1-0.4,6c1.3,2,3,3.4,5.8,2.9
			c8.9-1.6,17.4-4.3,24.9-9.6c6.1-4.3,12.6-8,19-12c14.1-9,26.1-20.4,38.2-31.8c12.8-12.1,23.6-25.5,32.8-40.5
			c4.5-7.3,10.8-13.5,16.7-19.8c3.7-3.9,9.1-2.8,13.7-2c4.1,0.7,4.1,5,5.1,8.3c3,9.5-1.4,16.5-7.6,22.7c-6,6.1-9.5,14.1-16.1,19.6
			c-1,0.8-1.1,2.5-0.3,3.7c0.8,1.4,2.2,1.4,3.5,1c6.1-2.1,12.4-3.7,17-8.8c11.8-12.9,26.5-22.3,41.4-31c9.3-5.5,19.5-9.2,30.3-11
			c4.8-0.8,9.3,0.1,13.8,1.3c4.4,1.2,7.6,4.2,8.2,9.1c0.2,1.9,0.9,3.5,1.7,5.2c1,2,1.6,4.4,0.6,6.3c-4.7,8.7-8.5,17.7-17.5,23.6
			c-10.9,7.1-22.4,12-35.2,14.4c-7.2,1.3-14.1,3.9-21.3,5.1c-6.9,1.1-11.1,5.9-12.8,12c-2.6,9-4.3,18.4-6,27.7
			c-0.9,4.8-2.8,9.4-6.6,12c-7.1,4.8-14,10.1-22.5,12.5c-3,0.8-5.3,0.2-7.2-2c-5.9-6.6-4.9-17.1,3.2-20.3c7.7-3.1,10.6-9,13.6-15.5
			c1.3-2.8,1.8-5.7-0.4-8.4c-2.4-3-4.8-0.8-7.2,0c-10.5,3.5-20.2,9.3-28.4,16.2c-8.3,7-16.4,14.5-23.7,22.6c-2.1,2.4-4.4,4.5-7,6.3
			c-7.2,5.1-12.9,11.5-16.6,19.5c-2.3,4.9-6.8,6.6-10.7,9.1c-1.2,0.8-2.9,0.6-3.8-0.2c-4-3.7-10.7-5.4-9.6-13c0.2-1.6-0.1-3.3-0.2-5
			c-0.2-7-2.2-8.3-8.5-5.7c-5.9,2.4-11.9,4.3-18.3,4.9c-9.4,0.9-16.8-1.9-22.1-10.2c-1.7-2.7-3.7-4.7-3.6-8.3c0.1-2.6-2-3.3-4.2-2.1
			c-2.8,1.4-5.7,2.8-8.3,4.6c-8.3,5.7-17.8,9.3-26,15.5c-6.4,4.9-14.9,7.1-22.6,10.2c-3.1,1.2-6.2,2.2-9.2,3.8
			c-7.2,3.9-18.4-1.4-20-9.3c-0.7-3.5-3.5-4.4-6.8-2c-4.5,3.3-9.2,6.5-13.4,10.2c-7.2,6.4-15.9,10.2-24.4,14.3c-2.9,1.4-5.6,2.9-8,5
			c-4,3.3-8.7,4.8-13.9,4.2c-5.4-0.6-8-2.9-8.7-8.5c-0.3-2.1-2.9-3-2.5-5.3c0.8-3.6,1.5-7.1,4.8-9.5c4.4-3.3,9.2-6.6,14.3-8
			c18.7-5.1,32.5-17.6,46.8-29.6c10.7-9,21.8-17.8,28.6-30.1c5.8-10.4,9.8-21.8,15.1-32.4c4.3-8.6,7.2-17.7,11.4-26.4
			c3.7-7.5,7.1-15.3,10.9-22.8c10.9-21.3,22.8-42,37.3-61c5.6-7.4,12.3-13.9,18.7-20.7C1614.5,802.3,1618.9,800.8,1623.1,800.4z"/>
		<path class="st0" d="M1577.5,512.4c1.7-12.1,3.1-24.6,9.5-36.6c6.4-11.9,12.7-24.1,17.5-36.9c1.8-4.8,1.2-5.1-3.7-5.9
			c-15.6-2.5-23.3,7.9-30.9,18.5c-1.5,2.1-2.7,4.5-4.3,6.7c-4.3,5.6-4.9,12-2.5,18.4c1.7,4.7,1.5,9.5,1.3,14.3
			c-0.1,3.6-1.6,5.8-5.9,5.6c-5.7-0.2-10.3,1.5-12.8,7.4c-1.5,3.6-4.9,5.9-8.1,7.8c-3.5,2.1-10.7-1.1-12-6.1
			c-1.9-7.8-7.1-10.4-14-12c-3.5-0.8-6.7-2.9-10.2-4c-6-2-8.7,0-10.5,5.9c-3.2,10.8-4.2,22.2-10.1,32.2c-2.7,4.6-5.5,8.6-10.9,10.3
			c-2.8,0.9-5.4,2.4-8.2,3.6c-11.8,5-14.3,0.4-20.2-7.2c-2.1-2.7-3.5-6-5.4-9c-1.1-1.7-1.6-3.3-0.7-5.1c0.8-1.7,0.8-3.6,0.5-5.4
			c-0.4-2.3-2-3.4-4.1-3.8c-2.2-0.4-3.4,0.8-4.3,2.6c-1,2.3-2.4,4.4-3.1,6.8c-6,19-19.3,31.4-36.1,40.8c-8,4.4-16.1,8.4-25.3,10.1
			c-10.5,1.9-22.2-3.3-26.2-13.1c-2.4-6-4.1-6.3-9.1-2.2c-8,6.5-16.3,12.5-25.9,16.7c-6.9,3-12.3,3.1-18.1-2.9
			c-6.1-6.3-8.3-12.4-5.3-20.8c2.4-6.7,2.7-13.9,5.2-20.7c1.9-5.2,5.1-9.8,6.1-15.2c2.7-13.9,10.3-25.9,15.2-39
			c1.7-4.6,4.4-8.7,7.9-12c5-4.8,6.6-12,12.1-16.3c6.7-5.3,13.2-3.3,15.8,4.7c0.5,1.6,1.3,3.1,1.8,4.6c2,5.9,2,11.8-2.9,16.2
			c-7.9,7.1-11.2,17.1-16.7,25.7c-6.8,10.8-8.9,23.6-14.3,34.9c-0.7,1.5-2,3.7-0.3,5.1c1.7,1.4,3.5-0.5,4.8-1.5
			c7.4-5.4,12.7-12.5,17.8-20c7.6-11.2,12-24.1,18.4-35.9c2.4-4.4,5.9-6.4,10.3-6.5c4.6-0.1,6.1,4.3,7.6,7.6
			c3.6,7.8,2.7,15.2-1.9,22.7c-4,6.6-7,13.9-10.3,21c-2.4,5.1-1.4,10.8-2.8,16.1c-0.7,2.5,1.3,3.8,3.5,4.7c4.1,1.6,8,0.3,11.7-0.9
			c10.8-3.7,21.1-8.5,29.2-16.8c11.9-12.3,15.5-26.9,11.9-43.9c-1.6-7.3-3.3-14.9-1.8-22.6c0.9-4.8,4.8-5.5,8.6-6.2
			c3.6-0.7,5.2,1.7,6.9,4.5c3.3,5.7,5.8,11.7,5.3,18.4c-0.5,6.9,3.5,11.4,7.6,16c1.4,1.6,2.9,1.3,4.4,0.1c2.5-2,4.4-4.5,5.7-7.5
			c4.4-9.4,11.5-16,21-20.2c5.2-2.3,9.4-5.6,11.1-11.9c2.6-9.1,7.3-11.5,16.8-9.2c10.5,2.6,18.8,9,25.9,16.8c3.1,3.4,6.8,5.8,10.7,8
			c2,1.1,4,0.7,5.4-1.1c2.5-3.5,5.6-6.7,7.1-10.8c5.1-14.6,13.9-27,25-37.4c8.9-8.3,20.3-9.5,32.2-7.3c4.6,0.9,9,2.4,13.5,3.4
			c4.8,1.1,9.6-1.9,12.7-7.7c1.5-2.8,3.2-5.5,5.9-7.3c3.8-2.5,6.6-6.1,9.2-9.7c4.3-6,9.8-9.9,17.7-9.2c3.9,0.3,7.1-1.1,10-3.7
			c16.6-14.8,35.5-26.3,54.3-38c5.1-3.2,11.1-4.5,16.9-6c12.2-3.1,25,12.3,22.6,24.7c-0.7,3.4-1.2,6.9-2.9,10
			c-0.8,1.5-1.7,3-3.8,2.3c-1.9-0.6-1.6-2.2-1.5-3.8c0.5-6.8-0.5-7.8-7.3-7.4c-7.7,0.5-14.6,2.9-21.5,6.7
			c-8.4,4.7-16.5,9.9-24.3,15.3c-6.2,4.3-12.9,8.1-19.1,12.4c-9,6.3-16.1,14-22.4,22.7c-0.6,0.9-1.6,1.1-2.5,1.5
			c-5.8,2.4-6.1,5.2-1.4,9.5c7.4,6.7,17,8.7,26.1,10.3c13.7,2.5,27.6,2.9,41.6,1.9c13.1-0.9,26.2-1.9,39.2-3
			c3.5-0.3,6.9-0.9,10.2-2.1c3.9-1.4,8.5-2.3,11.3,1c3,3.7,2.5,8.9,1.2,13.4c-1.2,4.3-5.3,5.7-9.2,5.7c-12.3,0-24.2,2.2-36,4.8
			c-19.9,4.4-39.9,3.8-60,1.7c-10.2-1-19.2-5.2-28.6-8.3c-5.2-1.7-9.9-4.7-12.9-9.7c-1.5-2.5-3.6-2.6-6-1.2c-3.1,1.8-5.8,4-7.2,7.3
			c-3,7-8.3,12.6-11.4,19.2c-3.4,7.2-9,13.2-11,21c-1.3,5.2-5.6,9-6.7,14.4c-1.3,6.4,1.1,9.1,7.4,7.4c11.6-3.2,22.2-8.5,33-13.6
			c12.6-6,23.4-14.5,34.9-22.1c1.4-0.9,2.9-1.7,4.5-2.1c4.3-1.2,6.2,0.8,5.5,5.2c-1.3,8.2-8,12-13.7,16.3
			c-12.1,9.1-24.9,17.2-37.9,24.8c-11.9,7-25.2,10.2-39.1,10.6c-2.3,0.1-4.6-0.9-6-3c-1.5-2.2-3.4-4.1-5.5-5.7
			C1576.1,520.6,1578.3,516.6,1577.5,512.4z"/>
		<path class="st0" d="M1950.6,983.2c8.5-2.4,20.4-1.4,30.9-6.9c2.7-1.4,5.2-3.1,4.8-6.3c-0.6-4.7,1-9.5-1-14.1
			c-1.3-3.1,1.3-5.4,3.1-7.4c5.7-6.3,11.7-12.2,17.4-18.4c7.5-8,16-15,23.9-22.5c5.7-5.4,10.2-5.2,15.9-0.7
			c12.1,9.5,9.9,20.1,3.9,30.5c-2.7,4.7-5.9,9.2-9.1,13.7c-10.3,14.9-21.9,28.7-36,40.3c-8.1,6.7-14.5,15-21.2,23.1
			c-1.4,1.7-2.7,3.3-4.6,4.5c-1.4,0.9-3.3,1.8-2.3,3.8c1.1,2.2,3.3,2.2,5.2,1.3c4.1-1.8,8.6-2.7,12.7-4.5
			c15.4-6.7,30.8-13.1,45.8-20.8c14.3-7.3,27.6-16,41.8-23.4c10.7-5.6,17.6-14.7,23.7-24.9c8-13.2,16.8-25.9,28.4-36.3
			c2.4-2.1,4.4-4.5,6.3-7.1c9-12.4,20.5-22.1,33.3-30.4c2.9-1.9,6.1-2.6,9.5-2.4c4.6,0.2,7.2,2.6,7.3,7.1c0.2,9.5-2.8,18.1-8.5,25.6
			c-8,10.5-16.2,20.9-24.6,31.1c-6.8,8.2-14.9,15.1-23,22c-8.9,7.5-18.1,14.5-24.7,24.8c-9.9,15.3-18.5,31.5-30.5,45.5
			c-1.4,1.6-2.2,3.7-3.3,5.6c-2.1,3.6-5,5.8-9.4,4.5c-4-1.2-8-5.9-7.6-9.4c0.3-3.5,0.9-7,3.7-9.5c0.4-0.3,0.8-0.7,1-1.1
			c1.3-2.9,4.8-6,2.6-8.9c-2.1-2.7-5.6,0.1-8.1,1.3c-14,6.5-27.8,13.4-41.8,19.8c-12.7,5.8-25.7,10.9-38.3,16.7
			c-14.2,6.6-28.1,13.7-42,20.7c-6.4,3.2-9.6,9.5-13.7,14.8c-5,6.5-10.9,12.2-16.9,17.6c-4.2,3.8-8.1,7.8-12.8,11.1
			c-4.2,3-8.9,4.7-13.7,5.8c-7.1,1.6-13.3-2.8-15.5-10.7c-3.2-11.8,2.6-27.1,12.2-34.7c6.8-5.4,13.6-10.8,21.5-14.2
			c6.4-2.8,13-4.8,19.1-8.4c4-2.3,7.5-5.2,10-8.9c7.5-10.9,17.3-19.7,25.8-29.8c2.5-3,1.4-3.4-1.3-4c-1.5-0.3-3.1-0.6-4.4-0.3
			c-8.3,1.9-16.2,0.1-24-2.7c-4.6-1.6-8.2-5-11.8-8.2c-4.6-4.1-4.7-4.2-9,0.5c-1.2,1.4-2.4,2.9-4.2,3.4c-2.5,0.7-5.1,1.4-4.9-2.9
			c0.1-2.2-1.1-3-3.4-3.3c-8.5-0.9-10.2-5.3-5.6-12.8c4-6.5,7.4-13.4,11-20.2c0.8-1.4,1-3.1,1.4-4.8c0.2-0.8,0.2-1.7-0.7-2.2
			c-0.9-0.4-1.6,0.2-2.2,0.8c-9.2,8.9-19.3,16.8-28.2,26c-8.3,8.6-15.6,18.1-24.9,25.6c-2.6,2.1-4,5.1-4.6,8.1
			c-0.9,5-3.2,9.4-4.4,14.2c-0.6,2.5-2,4.1-4.4,5.1c-3.5,1.4-7.4,2-10,5.3c-0.5,0.7-1.7,1-2.2,0.3c-2.4-3-6.5-3.3-9-6
			c-4.7-5-5.2-7.4-1.6-13.1c2.4-3.8,4.6-7.5,5.6-12.1c0.6-2.8,3-5.7,5.3-7.7c6.1-4.9,9.5-11.9,14.7-17.5
			c8.3-8.8,16.7-17.5,25.3-26.1c7.2-7.3,14.4-14.7,22.5-21c4.7-3.7,9.6-8,16.6-5.4c1.2,0.5,3.4,0.7,3.2,1.9
			c-1.1,5.2,3.3,8.8,3.4,13.6c0.1,4.5,1.2,4.9,5,2.5c1.8-1.2,3.5-2.6,4.7-4.4c11.4-16.3,24.3-31.5,34.4-48.8c1.9-3.3,4.5-6.2,8.6-7
			c3.6-0.7,7.3-1.1,9.6,2.3c2.3,3.5,4.7,7.4,2.8,12c-2.4,5.6-4.6,11.1-8.5,16.2c-7,9-13,18.8-19.7,28.2c-3.4,4.8-8.3,8-11.2,13.3
			c-4.1,7.5-0.9,16.6,7.2,19.2C1937.7,982.4,1942.7,983.5,1950.6,983.2z"/>
		<path class="st0" d="M420.3,511.6c11.2-1.1,22.3,0.6,33.3,2.5c9.5,1.6,16.9,6.5,20.8,15.9c8,18.8,4.1,36.3-5.5,53.1
			c-7.9,13.7-18.3,25.7-29.7,36.5c-8.8,8.4-17.8,16.7-27.1,24.6c-5.6,4.8-12.9,8.1-16.6,15.3c-3.2,6.2-3,8.6,1.7,13.7
			c7.3,8,17.1,11.6,26.5,16.1c9.2,4.4,18.9,7.2,28.3,10.9c7,2.7,13.6,5.4,18.7,10.8c6.3,6.8,8.7,14.6,5.7,23.9
			c-3,9.3-9.1,16-16.7,21.7c-9.1,6.9-19.6,11.2-29.7,16.2c-20.6,10.2-42.6,15.8-65.3,19c-9.3,1.3-18.8,2-27.8,0
			c-12.8-2.9-22.3-10.8-27-23.6c-0.5-1.2-0.7-2.6-1.2-3.8c-0.6-1.3-1.3-3-3.1-2.8c-1.7,0.2-1.4,2-1.7,3.2c-1.2,4.6-3.9,8.5-6.7,12.1
			c-3,3.9-7.8,3.2-12,1.6c-5.8-2.2-8.2-7.4-8.5-13.6c-0.2-4.6,1.5-7.9,3.9-11.3c2.5-3.5,4-7.4,4.8-11.4c1.5-7.6,4.7-14.5,7.2-21.7
			c4.7-13.7,9.7-27.4,14.4-41.2c6.2-18.4,12.8-36.7,20.1-54.7c4.7-11.5,8.2-23.5,11.7-35.5c3.1-10.3,7.1-20.4,11-30.5
			c2.8-7.1,2.5-8.6-3.7-12.7c-7.6-5.1-10-17.3-4.7-24.5c1.9-2.6,4.8-3.5,7.9-3.8c16.9-1.4,33.5-4.8,50.5-5.5
			C406.6,511.9,413.5,511.6,420.3,511.6z M350.8,772.1c13.9-0.1,25.7-2.2,37.3-5.1c14.9-3.7,29-9.8,42.9-16.1
			c10-4.5,19.4-10.1,27-18.3c3.4-3.7,3.1-6.5-1.2-9.3c-4-2.5-8.3-4.1-12.8-5.5c-22.2-6.9-42.4-17.4-60.1-32.5
			c-12.9-11-14.4-26.2-4.4-40c4.9-6.7,11.3-11.6,17.6-16.8c13.3-11,25.8-23,38.4-34.9c12.3-11.6,20.4-25.2,23-41.9
			c1.2-7.9-1.4-10.5-9.5-11.6c-11-1.4-22-1.1-32.9-0.2c-10.6,0.8-21.3,0.7-31.7,3.4c-3.4,0.9-5.8,2.3-7.3,5.9
			c-5.1,11.6-8.1,23.9-12.2,35.8c-8.3,24.3-17.4,48.4-25.6,72.8c-2.2,6.5-5.7,12.5-7.6,19c-5.7,19-12.1,37.7-19.8,55.9
			c-1.2,2.7-4,6-1.5,8.8c2.4,2.7,5-1.2,7.6-1.5c3.4-0.4,7.3-2.2,9.9,0.8c2.6,3.1,3.5,7.2,2.3,11.3c-0.7,2.2-2,4.2-3.1,6.2
			c-3.4,6.2-2.8,8.5,3.6,11.2C337.6,772.4,345.1,772,350.8,772.1z"/>
		<path class="st0" d="M1423.4,859.6c1.5,7.9-4.5,13-6.8,19.5c-5.6,16-14,30.8-22.4,45.5c-2.6,4.6-7.1,7.9-8,13.6
			c-0.3,1.7-2,3.4-0.4,5.1c1.8,1.9,3.8,0.5,5.5-0.3c7.5-3.3,15.2-5.6,23.4-6.7c12-1.7,20,2.3,24.7,13.7c4.1,9.9,6.8,20.6,4.5,31
			c-2.5,11-5.6,22.4-13,31.4c-5.1,6.3-9.5,13-15.5,18.7c-8.4,8-18.1,14-27.6,20.4c-8.4,5.7-17.7,9.8-26.5,14.6
			c-11.7,6.4-23.8,13.3-38.1,13.1c-7.4-0.1-14.6-0.7-21.6-3.2c-2.4-0.8-3.8-2.4-5-4.6c-1.7-3.2-3.6-6.3-5.6-9.4
			c-2.7-4.1-3.3-10.4-0.2-14c2.3-2.7,3.4-5.6,3.7-9c0.8-10.1,6.5-18.3,11.8-26.1c9.5-13.8,18.9-27.7,29.3-40.8
			c7.4-9.3,11.6-20.5,19.2-29.7c10.7-13,17-28.7,25.7-43c7.7-12.7,13.3-26.4,18.3-40.4c1.3-3.6,3.3-6.9,5.1-10.2
			c2.9-5.2,7.2-6.9,12.5-5.4c5.1,1.4,5.8,6.4,6.9,10.7C1423.8,855.9,1423.4,857.9,1423.4,859.6z M1315.4,1059.1
			c5.6-0.6,11.2-1.8,16.4-4c15.8-6.8,31.3-14.3,45.8-23.8c16.2-10.5,29.2-24,39.7-40c2.9-4.4,3.3-9.7,5-14.6
			c2.6-7.3-0.9-12.3-8.7-12c-11,0.4-20.9,5.1-29.8,10.6c-18.9,11.7-37.1,24.5-50.5,42.9c-5.7,7.8-10,16.4-15.2,24.6
			c-1.8,2.9-1.9,6.8-5.6,8.8c-1.6,0.9-4.3,2.1-3.1,4.9C1310.5,1059.2,1312.9,1059.3,1315.4,1059.1z"/>
		<path class="st0" d="M591.2,97.2c-0.5,4.1-2.6,7.3-6.8,8.7c-4.4,1.5-11.1-0.3-13.2-4.5c-3.1-6.3-8.6-7.7-14.5-7.7
			c-20.8-0.2-41.5-3.2-62.4-2.2c-28.4,1.4-56.8,1.9-84.7,8.3c-18.9,4.3-38.5,5.7-57.5,9.5c-10.8,2.2-22,3.3-32.6,6.6
			c-4.1,1.3-8.4,1.8-12.7,2.7c-16.5,3.3-32.5,8.7-48.9,11.8c-17.7,3.4-34.4,10-51.5,14.9c-20.9,5.9-41.6,12.6-61.8,21
			c-15.8,6.6-31.6,13.4-46.4,22.1C87.1,195,76,201.7,64.5,207.7c-2.6,1.4-4.4,3.5-6.1,5.8c-1.8,2.4-3.7,4.6-6.9,5.5
			c-8.1,2.3-13.8-2-15.9-11.4c-1.2-5.3,0.1-8.2,4.7-11.5c23.6-16.9,49.9-28.6,76.3-40.1c46.5-20.2,95.2-32.9,144.4-44.4
			c9.7-2.3,19.3-5.3,29-7.5c26.1-5.9,52.2-11.8,78.7-16.1c11-1.8,21.8-4.9,32.7-6.8c13.7-2.3,27.5-4.5,41.4-5.9
			c26-2.7,52.1-4.8,78.2-3.7c18.2,0.7,36.6,0.6,54.5,5.2C585.4,79.2,591.5,86.8,591.2,97.2z"/>
		<path class="st0" d="M1060.2,581.8c-1,0-2-0.1-3,0c-17,1.9-21-7.4-24.7-21.2c-4.5-16.9,0.9-32.3,7.1-47.7
			c6-14.8,15.6-26.9,27.7-36.9c8.7-7.2,19.2-11.4,30.3-13.1c12.1-1.9,24.2-0.1,36.3,0.1c3.8,0.1,6.3,2,8.4,5.2
			c5.6,8.3,5.2,7.9,0.4,16.4c-4.1,7.2-6.6,15.2-9.9,22.8c-5.3,12.5-9.4,25.4-16.1,37.4c-7,12.6-13.8,25.4-18.8,39.1
			c-1,2.7-1.4,5.2-0.1,8.1c3.2,6.7,1.5,13.7-3.8,18.9c-2.6,2.5-4.1,6.1-7.8,7.4c-1.8,0.7-3.3,1.6-4.8-0.5c-0.3-0.4-0.7-0.7-1.1-1
			c-1.8-1.1-4.7,2.1-5.7-1.1c-1.4-4.4-3.8-8.6-3.4-13.4c0.5-5.5-0.7-11.2,2.7-16.5c1.8-2.8-1.1-3.7-3.4-3.9c-3.5-0.2-7-0.1-10.5-0.1
			C1060.2,582,1060.2,581.9,1060.2,581.8z M1049.3,552.6c0.4,8.7,0.5,8.4,7.8,9.9c5.3,1.1,9.8-1.4,14.6-2.4c10-2,16.4-8.9,20.5-17.4
			c5.6-11.8,11.8-23.3,16.2-35.6c2.2-6,6.3-11.2,6.4-18.1c0.1-3.5-0.5-4.5-3.9-4.2c-6.3,0.5-12.7,1.7-18.3,4.3
			c-14.3,6.6-24.8,17.5-32.2,31.3c-2.3,4.4-3.6,9.4-6.3,13.5C1050,540.1,1050.8,547.2,1049.3,552.6z"/>
		<path class="st0" d="M408.2,212.4c4.6-0.2,8.6,0.6,12.6,2.1c4,1.5,6.8,4.1,8,8.2c1.2,4,3.2,7.6,5.5,11.1
			c6.3,9.5,9.3,20.1,9.6,31.5c0.1,4,1,8,0.4,11.9c-2,14.1-7.2,27-15,39c-8.3,12.7-18.3,23.6-30.3,32.6c-7.1,5.3-15,9-23.4,12
			c-8.5,3-16.8,0.8-24.1-3c-5.2-2.7-7.6-9-10.2-14.4c-7.2-15.2-5.5-30.4-1.6-46.1c4.7-18.6,13-35.2,24.5-50.3
			c4.6-6.1,10.3-11.3,15.7-16.6c2.5-2.5,5.3-4.8,7.2-7.6C392.4,215,399.6,211.8,408.2,212.4z M356.9,328.3c0,2.5,0,4.7,0,6.8
			c0,9.2,3,11.5,12.2,9.1c1.4-0.4,2.9-0.9,4.2-1.5c14.4-6.2,25.2-17,36.1-27.8c6.6-6.5,9-15.4,13.1-23.3c3.3-6.3,4.3-13.3,5.2-20.1
			c0.4-3.4,1.5-6.7,1-10.4c-1.5-10-8.9-15.1-16.3-20.2c-0.8-0.5-1.9-0.9-2.8-0.8c-7.4,1.1-14.6,3.8-18.9,9.6
			c-7.7,10.3-16.4,20.1-21.6,32.2C362.5,297,354.6,311.5,356.9,328.3z"/>
		<path class="st0" d="M225.5,384.5c3.6-13.2-2.2-27-1.3-41c1-15.4,1.4-30.9,3.6-46.2c3.5-24.3,6.3-48.8,10.8-72.9
			c3.1-16.8,6.2-33.7,11.1-50.1c2.8-9.2,3.1-19,6.2-28.2c1.3-3.7,3.2-6.6,5.9-9c5-4.3,12.9-0.8,15.3,6.3c2,6.1,2.4,12,0.6,18.5
			c-3.8,13.3-6.4,26.8-10.2,40.1c-2.6,9.2-4.6,18.8-6,28.2c-3.1,21.8-7.2,43.4-10.5,65.1c-3.9,25.5-5.8,51.2-7.6,76.9
			c-0.4,5.5-1.1,10.8,0.1,16.3c0.6,2.9-0.7,5.6-2,8.1c-1.9,3.6-6.2,4.4-9.8,1.7C227.3,395.2,225.1,390.9,225.5,384.5z"/>
		<path class="st0" d="M1882.7,855.5c0.2-11.4,4.6-16.2,11.1-14.6c4.2,1,7.2,4.5,9.7,8c7.2,9.9,10.6,21.7,16.6,32.3
			c1.3,2.3,2.6,4.7,4.1,6.8c1.1,1.6,1.4,3.1,0.8,5.1c-2.2,7.7-6.2,8.7-12.2,3.2c-2.3-2.1-3.9-4.7-5-7.4c-3-7-7.5-12.9-12.8-18.2
			c-1.1-1.1-1.9-2.4-3.3-3C1884.9,864.7,1882.8,859,1882.7,855.5z"/>
		<path class="st0" d="M1998.1,1228.5c0.3,2.8-1,5.4-3.6,7.7c-6.8,6.2-11.6,13.5-13,22.9c-0.4,2.7-1.9,5.3-2.9,7.9
			c-1.6,4.4-5,5.3-8.8,4.1c-3.9-1.3-4.4-5-3.9-8.7c1.1-8.8,4.2-17.1,6.1-25.6c0.9-4,1-8.2,2.7-12.1c2.6-6,5.7-8.1,12.3-7.2
			C1992.9,1218.1,1998.2,1223.1,1998.1,1228.5z"/>
		<path class="st0" d="M985.9,919.5c-0.1,8-3,11-10.7,10.9c-8.9-0.1-13.1-4.5-13-13.9c0-6.2,4-9.5,10.9-9.3
			C981.6,907.5,986,911.7,985.9,919.5z"/>
	</g>
</g>
</svg>
